:version 1.10
:name ASF
:units
  mass 1
  length 1
  angle deg
:documentation
  ASF file generated by Kaydara
:root
  axis xyz
  order  tx ty tz rx ry rz
  position 0 0 0
  orientation 0 0 0
:bonedata
  begin
    id 1
    name RightUpLegDummy
    direction -0.718183 -0.695806 0.00816078
    length 4.904
    axis 0 0 0 xyz
  end
  begin
    id 2
    name RightUpLeg
    direction 3.53989e-006 -0.995788 0.0916897
    length 17.4976
    axis -3.49089 -0.000906621 0.000287158 xyz
    dof rx ry rz
  end
  begin
    id 3
    name RightLeg
    direction 0.00371093 -0.995096 -0.0988418
    length 16.5821
    axis 3.68512 0.0193738 -0.131023 xyz
    dof rx ry rz
  end
  begin
    id 4
    name RightFoot
    direction 0.000791514 -0.46099 0.887405
    length 3.77069
    axis 4.84075e-005 -0.120479 -0.188788 xyz
    dof rx ry rz
  end
  begin
    id 5
    name RightToes
    direction 0.00124746 -0.014064 0.9999
    length 3.85082
    axis 0.00048216 0.542163 -0.142577 xyz
    dof rx ry rz
  end
  begin
    id 6
    name SpineDummy
    direction 8.36599e-015 1 5.97571e-016
    length 4.6813
    axis 0 0 0 xyz
  end
  begin
    id 7
    name Spine
    direction -4.63632e-008 0.999988 0.00495137
    length 10.1015
    axis -0.00138897 0.000121419 3.25764e-006 xyz
    dof rx ry rz
  end
  begin
    id 8
    name Spine1
    direction 0 0 0
    length 0
    axis -0.00138896 0.000121452 2.39764e-006 xyz
    dof rx ry rz
  end
  begin
    id 9
    name HEadDummy
    direction -3.91456e-008 0.999999 0.00127422
    length 3.43865
    axis -0.00138896 0.000121452 2.39764e-006 xyz
  end
  begin
    id 10
    name HEad
    direction -0.0222688 0.980941 0.193023
    length 5.12695
    axis -0.00138895 0.000121452 2.39764e-006 xyz
    dof rx ry rz
  end
  begin
    id 11
    name LeftShoulder1Dummy
    direction 0.998891 -0.0402508 -0.0244456
    length 3.5433
    axis -0.00138896 0.000121452 2.39764e-006 xyz
  end
  begin
    id 12
    name LeftShoulder1
    direction 0.99951 -0.000327743 0.0313091
    length 4.05031
    axis -0.00138896 0.000121452 2.39764e-006 xyz
    dof rx ry rz
  end
  begin
    id 13
    name LeftArm
    direction 0.998561 -0.00100054 -0.0536182
    length 10.3537
    axis -23.1894 0.134784 0.96751 xyz
    dof rx ry rz
  end
  begin
    id 14
    name LeftForeArm
    direction 0.998903 0.00866434 0.046012
    length 8.70632
    axis -9.91835 -0.06569 -0.177792 xyz
    dof rx ry rz
  end
  begin
    id 15
    name LeftHand
    direction 0.992938 -0.0411636 0.11126
    length 5.32135
    axis -0.00960227 -0.00340091 0.185174 xyz
    dof rx ry rz
  end
  begin
    id 16
    name RightShoulderDummy
    direction -0.998891 -0.0402509 -0.0244414
    length 3.5433
    axis -0.00138896 0.000121452 2.39764e-006 xyz
  end
  begin
    id 17
    name RightShoulder
    direction -0.99951 -0.000327827 0.0313133
    length 4.05031
    axis 0.215806 0.000203644 -0.00680151 xyz
    dof rx ry rz
  end
  begin
    id 18
    name RightArm
    direction -0.998573 -0.000999583 -0.053403
    length 10.3947
    axis -23.2009 -0.134239 -0.9641 xyz
    dof rx ry rz
  end
  begin
    id 19
    name RightForeArm
    direction -0.998898 0.00868026 0.0461306
    length 8.68355
    axis -9.92322 0.0658061 0.178869 xyz
    dof rx ry rz
  end
  begin
    id 20
    name RightHand
    direction -0.992843 -0.0414603 0.112003
    length 5.28593
    axis -0.00960634 0.00330671 -0.185226 xyz
    dof rx ry rz
  end
  begin
    id 21
    name LeftUpLegDummy
    direction 0.718183 -0.695806 0.00816078
    length 4.904
    axis 0 0 0 xyz
  end
  begin
    id 22
    name LeftUpLeg
    direction -6.8115e-006 -0.995793 0.0916336
    length 17.4976
    axis -3.48766 0.00143441 -0.000523914 xyz
    dof rx ry rz
  end
  begin
    id 23
    name LeftLeg
    direction -0.00601357 -0.995091 -0.0987824
    length 16.5821
    axis 3.68177 -0.00654038 -0.00028478 xyz
    dof rx ry rz
  end
  begin
    id 24
    name LeftFoot
    direction -0.00417578 -0.460984 0.887399
    length 3.77069
    axis 1.87232e-006 4.66002e-005 -8.1837e-006 xyz
    dof rx ry rz
  end
  begin
    id 25
    name LeftToes
    direction 0.00818058 -0.00485161 0.999955
    length 3.85048
    axis 1.06246e-005 4.65855e-005 -8.18502e-006 xyz
    dof rx ry rz
  end
:hierarchy
  begin
    root RightUpLegDummy SpineDummy LeftUpLegDummy
    RightUpLegDummy RightUpLeg
    RightUpLeg RightLeg
    RightLeg RightFoot
    RightFoot RightToes
    SpineDummy Spine
    Spine Spine1
    Spine1 HEadDummy LeftShoulder1Dummy RightShoulderDummy
    HEadDummy HEad
    LeftShoulder1Dummy LeftShoulder1
    LeftShoulder1 LeftArm
    LeftArm LeftForeArm
    LeftForeArm LeftHand
    RightShoulderDummy RightShoulder
    RightShoulder RightArm
    RightArm RightForeArm
    RightForeArm RightHand
    LeftUpLegDummy LeftUpLeg
    LeftUpLeg LeftLeg
    LeftLeg LeftFoot
    LeftFoot LeftToes
  end

:SAMPLES-PER-SECOND 30
:FULLY-SPECIFIED
:DEGREES
1
root  -4.15431 40.9253 0.00168208 149.561 -89.8994 -150.682
RightUpLeg  5.61604 -1.50854 -0.462588
RightLeg  -2.05835 -22.511 1.15994
RightFoot  -1.56036 -0.196069 2.17531
RightToes  -3.10678e-008 1.75238e-005 3.56266e-009
Spine  -1.45209 0.30891 -3.39296
Spine1  5.77421 -0.467907 4.13612
HEad  -10.0781 -0.832283 -0.00278322
LeftShoulder1  1.01028 -0.675406 -17.5209
LeftArm  -17.3469 24.9849 -45.9231
LeftForeArm  151.225 -74.0232 -143.348
LeftHand  -0.646475 -4.44367 7.91155
RightShoulder  1.55915 2.28956 20.6056
RightArm  -15.1999 -9.92743 42.2971
RightForeArm  80.0739 79.68 83.3424
RightHand  -0.157842 7.95467 -1.74034
LeftUpLeg  5.60517 1.01762 1.6686
LeftLeg  -2.32992 17.4723 -0.701561
LeftFoot  -1.15014 0.191617 -2.29833
LeftToes  4.7643e-008 1.47522e-008 1.32869e-009
2
root  -4.16075 40.9284 -0.0019061 -0.983002 -90 0
RightUpLeg  5.49693 -1.56305 -0.513725
RightLeg  -2.10518 -22.502 1.1844
RightFoot  -1.54515 -0.197642 2.19403
RightToes  -3.10678e-008 1.75238e-005 3.56266e-009
Spine  -1.47562 0.137407 -3.46982
Spine1  5.92793 -0.604155 4.15529
HEad  -11.5949 -0.719488 -0.780556
LeftShoulder1  0.990283 -0.582478 -17.5845
LeftArm  -17.3114 24.636 -45.7722
LeftForeArm  151.483 -73.8932 -143.694
LeftHand  -0.675848 -4.81351 7.98005
RightShoulder  1.63427 2.48939 20.986
RightArm  -15.3056 -10.2661 41.815
RightForeArm  80.8767 79.6873 84.43
RightHand  -0.232404 8.15874 -2.36584
LeftUpLeg  5.54051 0.914619 1.60858
LeftLeg  -2.50263 17.5377 -0.751251
LeftFoot  -1.08218 0.191811 -2.30358
LeftToes  4.7643e-008 1.47522e-008 1.32869e-009
3
root  -4.16864 40.9305 -0.00531847 174.37 -89.7653 -175.132
RightUpLeg  5.26932 -1.44437 -0.489767
RightLeg  -2.1429 -22.3994 1.19947
RightFoot  -1.49448 -0.20086 2.23584
RightToes  -3.10678e-008 1.75238e-005 3.56266e-009
Spine  -1.05685 0.130864 -3.50831
Spine1  5.20013 -0.674445 4.21068
HEad  -12.5066 -0.950933 -1.03604
LeftShoulder1  1.0175 -0.695165 -17.5837
LeftArm  -17.3082 24.4189 -45.5765
LeftForeArm  151.255 -74.0028 -143.402
LeftHand  -0.662384 -4.88245 7.77814
RightShoulder  1.67782 2.60275 21.2081
RightArm  -15.2205 -10.8577 41.5066
RightForeArm  82.0333 79.6985 85.7251
RightHand  -0.211086 7.96658 -2.20434
LeftUpLeg  5.38753 0.980781 1.64073
LeftLeg  -2.62772 17.6841 -0.825499
LeftFoot  -1.01447 0.188024 -2.24638
LeftToes  4.7643e-008 1.47522e-008 1.32869e-009
4
root  -4.17754 40.9306 -0.00267827 -173.742 -89.6143 173.146
RightUpLeg  5.00604 -1.51741 -0.601488
RightLeg  -1.95793 -22.1464 1.17033
RightFoot  -1.56372 -0.202608 2.25228
RightToes  -3.10678e-008 1.75238e-005 3.56266e-009
Spine  -0.711486 0.0044791 -3.7203
Spine1  4.79766 -0.819705 4.37747
HEad  -13.8749 -2.03226 -1.33356
LeftShoulder1  1.00434 -0.638494 -17.5932
LeftArm  -16.9584 23.8502 -45.217
LeftForeArm  150.926 -74.0529 -143.225
LeftHand  -0.638793 -4.53063 7.75788
RightShoulder  1.65572 2.48928 21.3698
RightArm  -15.1596 -10.8468 41.4725
RightForeArm  81.4063 79.6954 84.9987
RightHand  -0.158927 7.98974 -1.75258
LeftUpLeg  5.30815 0.912664 1.5596
LeftLeg  -2.78373 17.9196 -0.895839
LeftFoot  -0.969347 0.18564 -2.21034
LeftToes  4.7643e-008 1.47522e-008 1.32869e-009
5
root  -4.20186 40.931 0.00459988 -178.991 -89.5037 178.548
RightUpLeg  4.92014 -1.47986 -0.584292
RightLeg  -2.10971 -22.0657 1.24118
RightFoot  -1.43855 -0.193699 2.10068
RightToes  -3.10678e-008 1.75238e-005 3.56266e-009
Spine  -0.686648 -0.224067 -3.82487
Spine1  4.63057 -1.07203 4.47223
HEad  -14.85 -2.75749 -1.33242
LeftShoulder1  1.10152 -0.995519 -17.8586
LeftArm  -16.9221 23.1173 -44.5432
LeftForeArm  149.739 -74.3149 -142.388
LeftHand  -0.631542 -4.31803 7.83093
RightShoulder  1.69909 2.60932 21.5484
RightArm  -15.0992 -11.2406 41.3356
RightForeArm  81.8981 79.6937 85.7352
RightHand  -0.220996 7.82707 -2.30883
LeftUpLeg  5.14861 0.896626 1.55716
LeftLeg  -2.69407 18.0583 -0.856186
LeftFoot  -1.00214 0.186173 -2.21893
LeftToes  4.7643e-008 1.47522e-008 1.32869e-009
6
root  -4.23694 40.9339 0.00925786 176.343 -89.3982 -176.724
RightUpLeg  4.93367 -1.46279 -0.552241
RightLeg  -2.19873 -22.0036 1.28376
RightFoot  -1.31605 -0.198725 2.16243
RightToes  -3.10678e-008 1.75238e-005 3.56266e-009
Spine  -0.642813 -0.516671 -4.1506
Spine1  4.58028 -1.45323 4.89154
HEad  -15.8171 -4.31234 -0.863386
LeftShoulder1  1.10466 -0.994707 -17.9349
LeftArm  -16.5217 22.0979 -44.1888
LeftForeArm  149.502 -74.4566 -141.997
LeftHand  -0.644716 -4.11682 8.14318
RightShoulder  1.67732 2.53084 21.5492
RightArm  -14.9243 -12.0082 41.3432
RightForeArm  84.4414 79.7239 88.1597
RightHand  -0.213497 8.16158 -2.2024
LeftUpLeg  5.22915 0.918933 1.60343
LeftLeg  -2.85887 18.1223 -0.914724
LeftFoot  -0.980287 0.183314 -2.17393
LeftToes  4.7643e-008 1.47522e-008 1.32869e-009
